<svg width="30" height="21" viewBox="0 0 30 21" fill="none" xmlns="http://www.w3.org/2000/svg">
<path d="M26.2498 18.9505C26.2498 19.9889 27.0877 20.8279 28.1249 20.8279C29.1621 20.8279 30 19.9889 30 18.9505V13.3183C30 10.2089 27.4803 7.68612 24.3747 7.68612L6.40314 7.68612L10.7041 3.37985C11.4366 2.64649 11.4366 1.45552 10.7041 0.722162C9.97168 -0.0111955 8.78217 -0.0111955 8.04971 0.722162L0.549343 8.23174C-0.183114 8.9651 -0.183114 10.1561 0.549343 10.8894L8.04971 18.399C8.78217 19.1324 9.97168 19.1324 10.7041 18.399C11.4366 17.6656 11.4366 16.4747 10.7041 15.7413L6.40314 11.4409L24.3747 11.4409C25.4119 11.4409 26.2498 12.2799 26.2498 13.3183V18.9505Z" fill="#F7F7F7"/>
</svg>
