<svg width="44" height="30" viewBox="0 0 44 30" fill="none" xmlns="http://www.w3.org/2000/svg">
<path d="M38.1247 27.2733C38.1247 28.7815 39.3417 30 40.8481 30C42.3544 30 43.5714 28.7815 43.5714 27.2733V19.0932C43.5714 14.5771 39.9119 10.9132 35.4014 10.9132L9.29981 10.9132L15.5465 4.65881C16.6103 3.5937 16.6103 1.86395 15.5465 0.798835C14.4827 -0.266279 12.7551 -0.266279 11.6912 0.798835L0.797856 11.7056C-0.265952 12.7707 -0.265952 14.5005 0.797856 15.5656L11.6912 26.4723C12.7551 27.5375 14.4827 27.5375 15.5465 26.4723C16.6103 25.4072 16.6103 23.6775 15.5465 22.6124L9.29981 16.3665H35.4014C36.9077 16.3665 38.1247 17.585 38.1247 19.0932V27.2733Z" fill="#F7F7F7"/>
</svg>
