<svg width="28" height="28" viewBox="0 0 28 28" fill="none" xmlns="http://www.w3.org/2000/svg">
<path d="M22.7511 11.3733C22.7511 13.8831 21.9362 16.2015 20.5635 18.0825L27.4873 25.0104C28.1709 25.6939 28.1709 26.8039 27.4873 27.4874C26.8037 28.1709 25.6934 28.1709 25.0098 27.4874L18.086 20.5595C16.2047 21.9374 13.8858 22.7467 11.3756 22.7467C5.09166 22.7467 0 17.656 0 11.3733C0 5.09066 5.09166 0 11.3756 0C17.6595 0 22.7511 5.09066 22.7511 11.3733ZM11.3756 19.2472C12.4098 19.2472 13.4338 19.0435 14.3893 18.6478C15.3448 18.2521 16.213 17.6721 16.9443 16.941C17.6756 16.2098 18.2557 15.3418 18.6515 14.3865C19.0472 13.4312 19.2509 12.4073 19.2509 11.3733C19.2509 10.3393 19.0472 9.31544 18.6515 8.36014C18.2557 7.40484 17.6756 6.53684 16.9443 5.80568C16.213 5.07453 15.3448 4.49455 14.3893 4.09885C13.4338 3.70315 12.4098 3.49949 11.3756 3.49949C10.3413 3.49949 9.31726 3.70315 8.36178 4.09885C7.40629 4.49455 6.53811 5.07453 5.80682 5.80568C5.07552 6.53684 4.49542 7.40484 4.09965 8.36014C3.70387 9.31544 3.50017 10.3393 3.50017 11.3733C3.50017 12.4073 3.70387 13.4312 4.09965 14.3865C4.49542 15.3418 5.07552 16.2098 5.80682 16.941C6.53811 17.6721 7.40629 18.2521 8.36178 18.6478C9.31726 19.0435 10.3413 19.2472 11.3756 19.2472Z" fill="#292929"/>
</svg>
