<svg width="50" height="48" viewBox="0 0 50 48" fill="none" xmlns="http://www.w3.org/2000/svg">
<path d="M21.5717 3.92463L18.1066 5.22059C17.8309 5.32169 17.6471 5.58824 17.6471 5.88235C17.6471 6.17647 17.8309 6.44301 18.1066 6.54412L21.5717 7.84007L22.8676 11.3051C22.9688 11.5809 23.2353 11.7647 23.5294 11.7647C23.8235 11.7647 24.0901 11.5809 24.1912 11.3051L25.4871 7.84007L28.9522 6.54412C29.2279 6.44301 29.4118 6.17647 29.4118 5.88235C29.4118 5.58824 29.2279 5.32169 28.9522 5.22059L25.4871 3.92463L24.1912 0.459559C24.0901 0.183824 23.8235 0 23.5294 0C23.2353 0 22.9688 0.183824 22.8676 0.459559L21.5717 3.92463ZM4.23713 36.3419C2.51838 38.0607 2.51838 40.8548 4.23713 42.5827L7.41728 45.7629C9.13603 47.4816 11.9301 47.4816 13.6581 45.7629L48.704 10.7077C50.4228 8.98897 50.4228 6.19485 48.704 4.46691L45.5239 1.29596C43.8051 -0.422794 41.011 -0.422794 39.2831 1.29596L4.23713 36.3419ZM44.5404 7.59191L34.8897 17.2426L32.7482 15.1011L42.3989 5.45037L44.5404 7.59191ZM0.689338 10.7721C0.275735 10.9283 0 11.3235 0 11.7647C0 12.2059 0.275735 12.6011 0.689338 12.7574L5.88235 14.7059L7.83088 19.8989C7.98713 20.3125 8.38235 20.5882 8.82353 20.5882C9.26471 20.5882 9.65993 20.3125 9.81618 19.8989L11.7647 14.7059L16.9577 12.7574C17.3713 12.6011 17.6471 12.2059 17.6471 11.7647C17.6471 11.3235 17.3713 10.9283 16.9577 10.7721L11.7647 8.82353L9.81618 3.63051C9.65993 3.21691 9.26471 2.94118 8.82353 2.94118C8.38235 2.94118 7.98713 3.21691 7.83088 3.63051L5.88235 8.82353L0.689338 10.7721ZM33.0423 34.3015C32.6287 34.4577 32.3529 34.8529 32.3529 35.2941C32.3529 35.7353 32.6287 36.1305 33.0423 36.2868L38.2353 38.2353L40.1838 43.4283C40.3401 43.8419 40.7353 44.1176 41.1765 44.1176C41.6176 44.1176 42.0129 43.8419 42.1691 43.4283L44.1176 38.2353L49.3107 36.2868C49.7243 36.1305 50 35.7353 50 35.2941C50 34.8529 49.7243 34.4577 49.3107 34.3015L44.1176 32.3529L42.1691 27.1599C42.0129 26.7463 41.6176 26.4706 41.1765 26.4706C40.7353 26.4706 40.3401 26.7463 40.1838 27.1599L38.2353 32.3529L33.0423 34.3015Z" fill="#292929"/>
</svg>
