<svg width="32" height="30" viewBox="0 0 32 30" fill="none" xmlns="http://www.w3.org/2000/svg">
<path d="M13.754 2.50232L11.5447 3.32861C11.3689 3.39308 11.2516 3.56302 11.2516 3.75055C11.2516 3.93808 11.3689 4.10802 11.5447 4.17249L13.754 4.99878L14.5803 7.20809C14.6447 7.38389 14.8147 7.5011 15.0022 7.5011C15.1897 7.5011 15.3597 7.38389 15.4241 7.20809L16.2504 4.99878L18.4597 4.17249C18.6355 4.10802 18.7527 3.93808 18.7527 3.75055C18.7527 3.56302 18.6355 3.39308 18.4597 3.32861L16.2504 2.50232L15.4241 0.293012C15.3597 0.117205 15.1897 0 15.0022 0C14.8147 0 14.6447 0.117205 14.5803 0.293012L13.754 2.50232ZM2.70157 23.1714C1.6057 24.2672 1.6057 26.0487 2.70157 27.1505L4.72921 29.1781C5.82507 30.274 7.60658 30.274 8.70831 29.1781L31.0534 6.82717C32.1492 5.73131 32.1492 3.9498 31.0534 2.84807L29.0257 0.826293C27.9299 -0.269571 26.1484 -0.269571 25.0466 0.826293L2.70157 23.1714ZM28.3987 4.84055L22.2454 10.9938L20.88 9.62836L27.0333 3.47512L28.3987 4.84055ZM0.439517 6.86819C0.175807 6.96782 0 7.21981 0 7.5011C0 7.78239 0.175807 8.03438 0.439517 8.134L3.75055 9.37637L4.99292 12.6874C5.09254 12.9511 5.34453 13.1269 5.62582 13.1269C5.90712 13.1269 6.15911 12.9511 6.25873 12.6874L7.5011 9.37637L10.8121 8.134C11.0758 8.03438 11.2516 7.78239 11.2516 7.5011C11.2516 7.21981 11.0758 6.96782 10.8121 6.86819L7.5011 5.62582L6.25873 2.31479C6.15911 2.05108 5.90712 1.87527 5.62582 1.87527C5.34453 1.87527 5.09254 2.05108 4.99292 2.31479L3.75055 5.62582L0.439517 6.86819ZM21.0675 21.8704C20.8038 21.97 20.628 22.222 20.628 22.5033C20.628 22.7846 20.8038 23.0366 21.0675 23.1362L24.3786 24.3786L25.6209 27.6896C25.7206 27.9533 25.9726 28.1291 26.2538 28.1291C26.5351 28.1291 26.7871 27.9533 26.8867 27.6896L28.1291 24.3786L31.4402 23.1362C31.7039 23.0366 31.8797 22.7846 31.8797 22.5033C31.8797 22.222 31.7039 21.97 31.4402 21.8704L28.1291 20.628L26.8867 17.317C26.7871 17.0533 26.5351 16.8775 26.2538 16.8775C25.9726 16.8775 25.7206 17.0533 25.6209 17.317L24.3786 20.628L21.0675 21.8704Z" fill="#292929"/>
</svg>
